<?xml version="1.0" standalone="no"?>
<!DOCTYPE svg PUBLIC "-//W3C//DTD SVG 20010904//EN"
 "http://www.w3.org/TR/2001/REC-SVG-20010904/DTD/svg10.dtd">
<svg version="1.0" xmlns="http://www.w3.org/2000/svg"
 width="512.000000pt" height="512.000000pt" viewBox="0 0 512.000000 512.000000"
 preserveAspectRatio="xMidYMid meet">
<metadata>
Created by potrace 1.11, written by Peter Selinger 2001-2013
</metadata>
<g transform="translate(0.000000,512.000000) scale(0.100000,-0.100000)"
fill="#000000" stroke="none">
<path d="M2543 5102 c-8 -99 -81 -264 -150 -339 -42 -45 -159 -130 -173 -125
-3 1 -27 -6 -55 -15 -60 -20 -30 -12 -260 -73 -104 -27 -200 -52 -213 -54 -13
-3 -58 -13 -100 -22 -42 -10 -81 -17 -86 -16 -7 3 -5 -18 8 -83 3 -11 25 -90
50 -176 79 -273 160 -478 308 -774 114 -229 148 -326 165 -475 15 -137 -7
-313 -54 -430 -3 -8 -7 -19 -9 -25 -1 -5 -17 -55 -34 -110 -17 -55 -33 -107
-35 -115 -2 -8 -18 -64 -35 -125 -31 -107 -35 -123 -44 -165 -3 -11 -7 -24
-10 -28 -3 -5 -7 -19 -9 -33 -3 -13 -10 -42 -16 -64 -28 -106 -39 -196 -36
-295 4 -120 8 -149 39 -263 l22 -82 50 -13 c27 -6 58 -14 69 -16 21 -4 105
-31 140 -45 11 -4 65 -30 120 -57 145 -71 136 -69 130 -28 -2 19 -6 38 -9 42
-2 4 -7 36 -10 71 -4 35 -8 67 -11 70 -2 4 -7 34 -10 66 -4 33 -9 63 -12 68
-4 6 -4 247 0 312 1 14 6 25 10 25 5 0 6 4 3 9 -8 12 18 124 56 241 66 206
144 481 168 590 39 179 45 401 15 570 -14 79 -18 95 -30 131 -8 21 -12 39 -8
39 3 0 1 6 -4 13 -6 6 -16 30 -23 52 -18 56 -75 182 -196 430 -33 66 -67 138
-76 160 -9 22 -26 62 -37 88 l-21 48 26 9 c14 6 29 10 34 10 4 0 56 16 115 36
140 47 278 116 349 174 70 56 185 180 215 233 18 31 37 60 44 64 6 4 102 7
213 8 112 0 206 4 210 8 8 8 13 447 6 480 -4 16 -31 17 -401 17 -376 0 -397
-1 -398 -18z"/>
<path d="M4577 4332 c-157 -165 -332 -426 -443 -657 -53 -112 -118 -276 -129
-325 -2 -8 -5 -22 -7 -30 -3 -13 35 -15 277 -16 182 0 285 3 294 10 7 6 24 35
38 66 86 191 149 308 241 450 53 81 196 269 214 281 12 8 -3 19 -117 79 -55
29 -106 57 -112 62 -7 6 -13 7 -13 4 0 -4 -12 1 -27 12 -16 10 -62 38 -104 60
l-77 42 -35 -38z"/>
<path d="M969 4346 c-2 -2 -20 -7 -39 -10 -39 -6 -182 -33 -220 -42 -14 -3
-34 -7 -45 -8 -32 -6 -88 -16 -115 -21 -14 -3 -36 -8 -50 -10 -14 -3 -39 -8
-55 -10 -17 -3 -43 -9 -58 -13 -26 -7 -26 -8 -12 -36 35 -66 159 -421 170
-485 3 -19 8 -38 11 -42 9 -15 49 -180 69 -289 3 -14 7 -36 10 -50 6 -29 11
-68 19 -130 3 -25 8 -55 10 -67 18 -88 26 -545 12 -668 -3 -27 -8 -70 -10 -95
-5 -47 -14 -107 -22 -150 -2 -14 -7 -41 -10 -60 -19 -115 -93 -390 -124 -465
-4 -11 -18 -47 -30 -80 -40 -109 -103 -257 -130 -305 -5 -8 -25 -49 -46 -90
-20 -41 -54 -104 -76 -139 -21 -34 -38 -65 -38 -67 0 -3 -32 -53 -70 -112 -57
-87 -67 -109 -56 -117 8 -6 38 -32 68 -57 29 -25 87 -75 128 -110 104 -87 134
-114 204 -180 47 -44 64 -54 74 -45 23 18 135 185 215 318 92 153 218 409 277
564 12 33 26 69 31 80 13 31 60 168 64 186 2 9 13 47 24 85 21 70 70 273 76
309 1 11 10 63 19 115 23 129 24 136 32 205 3 33 8 74 10 90 20 181 26 686 11
850 -16 163 -38 312 -64 420 -4 17 -7 32 -8 35 -1 3 -5 21 -9 40 -37 163 -177
621 -198 648 -10 11 -40 17 -49 8z"/>
<path d="M2939 3201 c-6 -25 -6 -101 -1 -102 4 -1 40 -2 80 -4 40 -2 76 -5 78
-8 3 -2 6 -85 7 -183 l2 -179 58 0 c54 -1 57 0 58 25 0 14 1 96 1 183 -1 140
1 157 16 158 9 1 45 2 80 2 65 1 65 1 65 52 0 51 -2 53 -41 52 -21 0 -42 2
-48 5 -5 3 -18 2 -29 -2 -11 -4 -32 -4 -47 1 -16 4 -30 3 -34 -2 -3 -5 -10 -7
-15 -3 -13 7 -229 12 -230 5z"/>
<path d="M3823 3190 c-18 -11 -33 -23 -33 -27 0 -5 -17 -26 -36 -48 -20 -22
-63 -70 -96 -107 -33 -38 -63 -68 -68 -68 -4 0 -6 51 -5 113 2 151 4 146 -60
146 l-54 -1 0 -234 0 -234 30 0 c31 0 51 17 121 101 20 24 46 55 58 69 12 14
32 36 44 50 52 61 52 61 52 -80 -1 -78 3 -131 9 -133 6 -3 30 -4 55 -3 l45 1
3 238 c2 221 1 237 -15 237 -10 0 -33 -9 -50 -20z"/>
<path d="M4158 3198 c-15 -12 -198 -435 -198 -458 0 -5 6 -10 13 -11 6 0 21
-2 32 -5 53 -11 80 25 140 186 10 25 24 60 32 78 l15 34 15 -29 c8 -15 30 -64
48 -108 55 -134 65 -155 73 -156 30 -5 104 -4 107 1 4 7 -63 166 -134 316 -28
58 -51 110 -51 115 0 16 -39 49 -58 49 -10 0 -25 -6 -34 -12z"/>
<path d="M4540 3200 l-25 -6 2 -194 c3 -307 -3 -283 74 -284 l46 -1 -1 180 -1
180 93 2 92 2 0 -167 c0 -92 4 -173 8 -179 10 -16 91 -23 99 -10 3 6 7 113 7
239 1 195 -1 229 -14 233 -13 3 -39 4 -142 5 -10 0 -38 0 -62 -1 -24 -1 -47 1
-53 4 -5 3 -15 2 -22 -2 -7 -5 -27 -5 -45 -2 -17 4 -42 5 -56 1z"/>
<path d="M3625 2572 c-43 -17 -90 -62 -107 -102 -6 -14 -12 -52 -13 -85 -4
-99 45 -170 137 -201 27 -8 48 -19 48 -23 0 -4 -24 -54 -53 -112 l-52 -105 50
-22 c61 -28 48 -42 160 183 94 189 115 243 115 289 -1 75 -70 161 -149 185
-51 15 -88 13 -136 -7z m109 -113 c27 -13 56 -62 51 -88 -2 -9 -4 -21 -4 -28
-1 -7 -12 -24 -27 -38 -20 -20 -32 -24 -57 -20 -36 6 -84 55 -82 83 3 39 28
81 54 91 35 13 36 13 65 0z"/>
<path d="M4158 2575 c-58 -14 -103 -50 -122 -98 -24 -57 -21 -67 20 -67 38 0
67 12 99 40 18 17 43 24 71 21 14 -1 44 -45 49 -71 4 -23 -34 -62 -66 -67 -36
-5 -55 -29 -53 -65 2 -46 1 -45 32 -54 41 -11 41 -11 50 -13 15 -2 52 -38 52
-50 0 -6 4 -11 8 -11 5 0 9 -16 10 -35 1 -26 -6 -41 -29 -65 -17 -16 -36 -30
-42 -31 -7 0 -19 -2 -28 -4 -28 -5 -77 25 -89 55 -14 34 -30 42 -88 45 -49 3
-65 -14 -40 -43 9 -9 18 -29 21 -43 17 -71 103 -123 201 -122 34 1 77 7 96 15
35 15 110 82 110 99 0 17 2 24 9 34 14 19 12 84 -4 117 -8 18 -31 50 -50 72
-19 21 -35 43 -35 48 0 6 11 21 25 34 34 31 46 89 28 139 -33 95 -132 146
-235 120z"/>
<path d="M4625 2563 c-72 -37 -105 -89 -125 -195 -34 -186 1 -371 82 -431 111
-82 259 -53 318 63 53 104 59 328 12 443 -18 44 -53 86 -92 109 -45 28 -151
34 -195 11z m129 -113 c67 -25 91 -247 44 -398 -13 -44 -59 -68 -98 -52 -16 7
-35 19 -43 28 -38 43 -55 220 -31 326 21 90 63 121 128 96z"/>
<path d="M3081 2549 c-23 -22 -65 -89 -59 -94 4 -5 15 -5 77 -4 13 0 28 -4 34
-10 6 -6 10 -111 11 -268 l1 -258 58 -1 c49 0 57 2 58 18 6 136 2 621 -6 626
-5 4 -43 7 -83 7 -55 1 -77 -3 -91 -16z"/>
<path d="M3860 1788 c0 -32 23 -162 40 -228 5 -19 11 -46 14 -60 16 -79 18
-87 93 -317 62 -186 52 -173 133 -187 172 -28 413 -141 593 -279 27 -20 55
-44 64 -52 8 -9 17 -14 19 -13 2 2 -26 64 -63 138 -59 119 -141 308 -147 335
-1 6 -4 15 -7 20 -7 10 -69 197 -73 218 -2 7 -6 19 -9 27 -8 18 -68 255 -73
290 -3 14 -9 49 -15 78 l-10 52 -280 0 -279 0 0 -22z"/>
<path d="M1113 974 c-12 -11 -40 -64 -64 -119 -46 -112 -147 -309 -209 -410
-22 -37 -40 -69 -40 -71 0 -2 -16 -28 -35 -58 -19 -30 -35 -57 -35 -60 0 -3
30 6 68 19 107 37 167 54 209 61 21 3 41 8 44 10 4 2 27 6 50 10 351 45 599
10 894 -127 68 -31 253 -142 290 -173 17 -14 36 -30 42 -36 15 -13 27 -7 127
60 74 50 249 147 301 166 203 78 316 108 460 121 295 28 595 -35 859 -179 38
-21 73 -38 77 -38 5 0 9 -4 9 -10 0 -5 5 -10 12 -10 6 0 52 -27 101 -61 l89
-61 55 59 c49 52 99 105 289 312 33 34 63 69 67 77 9 15 -18 46 -87 99 -21 17
-44 35 -50 40 -27 25 -218 145 -293 183 -45 23 -121 57 -170 76 -48 18 -97 37
-108 41 -11 4 -29 10 -40 12 -11 2 -31 8 -45 13 -14 6 -38 12 -55 15 -16 3
-50 9 -75 15 -25 5 -56 12 -69 14 -136 29 -490 27 -651 -3 -114 -22 -145 -28
-145 -31 0 -1 -7 -3 -15 -5 -122 -24 -361 -128 -533 -232 -65 -39 -104 -41
-155 -5 -40 29 -206 114 -292 149 -142 59 -330 113 -445 129 -27 3 -59 8 -70
11 -11 2 -92 6 -180 10 -147 5 -162 4 -182 -13z"/>
</g>
</svg>
